# xmcd CD database file
#
# Track frame offsets:
#	150
#	16167
#	37062
#	51535
#	66457
#	81335
#	95375
#	109675
#	122910
#	138110
#	152457
#	167017
#	181877
#	193125
#	210330
#	219642
#
# Disc length: 3107 seconds
#
# Revision: 0
# Processed by: cddbd v1.5.2PL0 Copyright (c) Steve Scherf et al.
# Submitted via: CDex 2.14
#
DISCID=e10c2110
DTITLE=Tommy Dorsey and His Orchestra featuring Jo Stafford - Yes, Indeed!
DYEAR=2016
DGENRE=Jazz
TTITLE0=Yes, Indeed!
TTITLE1=For You
TTITLE2=Little Man With A Candy Cigar
TTITLE3=Swingin' On Nothin'
TTITLE4=Let's Just Pretend
TTITLE5=Who Can I Turn To
TTITLE6=It Isn't A Dream Any More
TTITLE7=Embraceable You
TTITLE8=Blues In The Night
TTITLE9=The Night We Called It A Day
TTITLE10=He's My Guy (Nobody Knows Better Than I)
TTITLE11=Manhattan Serenade
TTITLE12=Margie
TTITLE13=Medley: My Melancholy Baby, Time On My Hands, I Can't Give You Anything But Love
TTITLE14=You Can Depend On Me
TTITLE15=My! My!
EXTD=YEAR: 2016
EXTT0=
EXTT1=
EXTT2=
EXTT3=
EXTT4=
EXTT5=
EXTT6=
EXTT7=
EXTT8=
EXTT9=
EXTT10=
EXTT11=
EXTT12=
EXTT13=
EXTT14=
EXTT15=
PLAYORDER=
